<svg xmlns="http://www.w3.org/2000/svg" xmlns:xlink="http://www.w3.org/1999/xlink" contentStyleType="text/css" data-diagram-type="CLASS" height="1166.2px" preserveAspectRatio="none" style="width:1229px;height:1166px;background:#FFFFFF;" version="1.1" viewBox="0 0 1229 1166" width="1229.2px" zoomAndPan="magnify"><defs/><g><!--class MainApp--><g class="entity" data-entity="MainApp" data-source-line="2" data-uid="ent0002" id="entity_MainApp"><rect fill="#F1F1F1" height="46.6348" rx="1.75" ry="1.75" style="stroke:#181818;stroke-width:0.35;" width="71.5784" x="270.55" y="1043.35"/><ellipse cx="285.775" cy="1054.55" fill="#ADD1B2" rx="7.7" ry="7.7" style="stroke:#181818;stroke-width:0.7;"/><path d="M287.7109,1051.6625 Q287.8203,1051.5094 287.9516,1051.4328 Q288.0828,1051.3562 288.2359,1051.3562 Q288.4984,1051.3562 288.6625,1051.5422 Q288.8266,1051.7172 288.8266,1052.1437 L288.8266,1053.1609 Q288.8266,1053.5875 288.6625,1053.7734 Q288.4984,1053.9594 288.2359,1053.9594 Q287.9953,1053.9594 287.8531,1053.8172 Q287.7109,1053.6859 287.6344,1053.325 Q287.6016,1053.0734 287.4703,1052.9422 Q287.2406,1052.6797 286.8141,1052.5266 Q286.3875,1052.3734 285.95,1052.3734 Q285.4141,1052.3734 284.9656,1052.6031 Q284.5281,1052.8328 284.1781,1053.3578 Q283.8391,1053.8828 283.8391,1054.6047 L283.8391,1055.3703 Q283.8391,1056.2344 284.4625,1056.8141 Q285.0859,1057.3828 286.2016,1057.3828 Q286.8578,1057.3828 287.3172,1057.2078 Q287.5906,1057.0984 287.8859,1056.7922 Q288.0719,1056.6062 288.1703,1056.5516 Q288.2797,1056.4969 288.4219,1056.4969 Q288.6516,1056.4969 288.8266,1056.6828 Q289.0125,1056.8578 289.0125,1057.0984 Q289.0125,1057.3391 288.7719,1057.6234 Q288.4219,1058.0281 287.8641,1058.2578 Q287.1094,1058.575 286.2016,1058.575 Q285.1406,1058.575 284.2984,1058.1375 Q283.6094,1057.7875 283.1281,1057.0437 Q282.6469,1056.2891 282.6469,1055.3922 L282.6469,1054.5828 Q282.6469,1053.6531 283.0734,1052.8547 Q283.5109,1052.0453 284.2766,1051.6187 Q285.0422,1051.1812 285.9062,1051.1812 Q286.4203,1051.1812 286.8687,1051.3016 Q287.3281,1051.4109 287.7109,1051.6625 Z " fill="#000000"/><text fill="#000000" font-family="sans-serif" font-size="9.8" lengthAdjust="spacing" textLength="38.6784" x="296.625" y="1058.6078">MainApp</text><line style="stroke:#181818;stroke-width:0.35;" x1="271.25" x2="341.4284" y1="1065.75" y2="1065.75"/><line style="stroke:#181818;stroke-width:0.7;" x1="271.25" x2="341.4284" y1="1071.35" y2="1071.35"/><text fill="#000000" font-family="sans-serif" font-size="9.8" lengthAdjust="spacing" textLength="63.1784" x="274.75" y="1084.7252">build(): Widget</text></g><!--class StatelessWidget--><g class="entity" data-entity="StatelessWidget" data-source-line="6" data-uid="ent0003" id="entity_StatelessWidget"><rect fill="#F1F1F1" height="33.6" rx="1.75" ry="1.75" style="stroke:#181818;stroke-width:0.35;" width="93.2107" x="44.45" y="1085.7"/><ellipse cx="54.95" cy="1096.9" fill="#ADD1B2" rx="7.7" ry="7.7" style="stroke:#181818;stroke-width:0.7;"/><path d="M56.8859,1094.0125 Q56.9953,1093.8594 57.1266,1093.7828 Q57.2578,1093.7062 57.4109,1093.7062 Q57.6734,1093.7062 57.8375,1093.8922 Q58.0016,1094.0672 58.0016,1094.4937 L58.0016,1095.5109 Q58.0016,1095.9375 57.8375,1096.1234 Q57.6734,1096.3094 57.4109,1096.3094 Q57.1703,1096.3094 57.0281,1096.1672 Q56.8859,1096.0359 56.8094,1095.675 Q56.7766,1095.4234 56.6453,1095.2922 Q56.4156,1095.0297 55.9891,1094.8766 Q55.5625,1094.7234 55.125,1094.7234 Q54.5891,1094.7234 54.1406,1094.9531 Q53.7031,1095.1828 53.3531,1095.7078 Q53.0141,1096.2328 53.0141,1096.9547 L53.0141,1097.7203 Q53.0141,1098.5844 53.6375,1099.1641 Q54.2609,1099.7328 55.3766,1099.7328 Q56.0328,1099.7328 56.4922,1099.5578 Q56.7656,1099.4484 57.0609,1099.1422 Q57.2469,1098.9562 57.3453,1098.9016 Q57.4547,1098.8469 57.5969,1098.8469 Q57.8266,1098.8469 58.0016,1099.0328 Q58.1875,1099.2078 58.1875,1099.4484 Q58.1875,1099.6891 57.9469,1099.9734 Q57.5969,1100.3781 57.0391,1100.6078 Q56.2844,1100.925 55.3766,1100.925 Q54.3156,1100.925 53.4734,1100.4875 Q52.7844,1100.1375 52.3031,1099.3937 Q51.8219,1098.6391 51.8219,1097.7422 L51.8219,1096.9328 Q51.8219,1096.0031 52.2484,1095.2047 Q52.6859,1094.3953 53.4516,1093.9687 Q54.2172,1093.5312 55.0812,1093.5312 Q55.5953,1093.5312 56.0437,1093.6516 Q56.5031,1093.7609 56.8859,1094.0125 Z " fill="#000000"/><text fill="#000000" font-family="sans-serif" font-size="9.8" lengthAdjust="spacing" textLength="70.8107" x="64.75" y="1100.9578">StatelessWidget</text><line style="stroke:#181818;stroke-width:0.35;" x1="45.15" x2="136.9607" y1="1108.1" y2="1108.1"/><line style="stroke:#181818;stroke-width:0.35;" x1="45.15" x2="136.9607" y1="1113.7" y2="1113.7"/></g><!--class HomePage--><g class="entity" data-entity="HomePage" data-source-line="7" data-uid="ent0005" id="entity_HomePage"><rect fill="#F1F1F1" height="72.7043" rx="1.75" ry="1.75" style="stroke:#181818;stroke-width:0.35;" width="148.1266" x="458.15" y="163.1"/><ellipse cx="504.7239" cy="174.3" fill="#ADD1B2" rx="7.7" ry="7.7" style="stroke:#181818;stroke-width:0.7;"/><path d="M506.6599,171.4125 Q506.7692,171.2594 506.9005,171.1828 Q507.0317,171.1062 507.1849,171.1062 Q507.4474,171.1062 507.6114,171.2922 Q507.7755,171.4672 507.7755,171.8937 L507.7755,172.9109 Q507.7755,173.3375 507.6114,173.5234 Q507.4474,173.7094 507.1849,173.7094 Q506.9442,173.7094 506.8021,173.5672 Q506.6599,173.4359 506.5833,173.075 Q506.5505,172.8234 506.4192,172.6922 Q506.1896,172.4297 505.763,172.2766 Q505.3364,172.1234 504.8989,172.1234 Q504.363,172.1234 503.9146,172.3531 Q503.4771,172.5828 503.1271,173.1078 Q502.788,173.6328 502.788,174.3547 L502.788,175.1203 Q502.788,175.9844 503.4114,176.5641 Q504.0349,177.1328 505.1505,177.1328 Q505.8067,177.1328 506.2661,176.9578 Q506.5396,176.8484 506.8349,176.5422 Q507.0208,176.3562 507.1192,176.3016 Q507.2286,176.2469 507.3708,176.2469 Q507.6005,176.2469 507.7755,176.4328 Q507.9614,176.6078 507.9614,176.8484 Q507.9614,177.0891 507.7208,177.3734 Q507.3708,177.7781 506.813,178.0078 Q506.0583,178.325 505.1505,178.325 Q504.0896,178.325 503.2474,177.8875 Q502.5583,177.5375 502.0771,176.7937 Q501.5958,176.0391 501.5958,175.1422 L501.5958,174.3328 Q501.5958,173.4031 502.0224,172.6047 Q502.4599,171.7953 503.2255,171.3687 Q503.9911,170.9312 504.8552,170.9312 Q505.3692,170.9312 505.8177,171.0516 Q506.2771,171.1609 506.6599,171.4125 Z " fill="#000000"/><text fill="#000000" font-family="sans-serif" font-size="9.8" lengthAdjust="spacing" textLength="49.0287" x="519.0739" y="178.3578">HomePage</text><line style="stroke:#181818;stroke-width:0.35;" x1="458.85" x2="605.5766" y1="185.5" y2="185.5"/><line style="stroke:#181818;stroke-width:0.7;" x1="458.85" x2="605.5766" y1="191.1" y2="191.1"/><text fill="#000000" font-family="sans-serif" font-size="9.8" lengthAdjust="spacing" textLength="63.7335" x="462.35" y="204.4752">folderId: String</text><text fill="#000000" font-family="sans-serif" font-size="9.8" lengthAdjust="spacing" textLength="74.6245" x="462.35" y="217.51">username: String</text><text fill="#000000" font-family="sans-serif" font-size="9.8" lengthAdjust="spacing" textLength="139.7266" x="462.35" y="230.5447">createState(): State&lt;HomePage</text></g><!--class StatefulWidget--><g class="entity" data-entity="StatefulWidget" data-source-line="13" data-uid="ent0006" id="entity_StatefulWidget"><rect fill="#F1F1F1" height="33.6" rx="1.75" ry="1.75" style="stroke:#181818;stroke-width:0.35;" width="86.1335" x="263.2" y="231.7"/><ellipse cx="273.7" cy="242.9" fill="#ADD1B2" rx="7.7" ry="7.7" style="stroke:#181818;stroke-width:0.7;"/><path d="M275.6359,240.0125 Q275.7453,239.8594 275.8766,239.7828 Q276.0078,239.7062 276.1609,239.7062 Q276.4234,239.7062 276.5875,239.8922 Q276.7516,240.0672 276.7516,240.4937 L276.7516,241.5109 Q276.7516,241.9375 276.5875,242.1234 Q276.4234,242.3094 276.1609,242.3094 Q275.9203,242.3094 275.7781,242.1672 Q275.6359,242.0359 275.5594,241.675 Q275.5266,241.4234 275.3953,241.2922 Q275.1656,241.0297 274.7391,240.8766 Q274.3125,240.7234 273.875,240.7234 Q273.3391,240.7234 272.8906,240.9531 Q272.4531,241.1828 272.1031,241.7078 Q271.7641,242.2328 271.7641,242.9547 L271.7641,243.7203 Q271.7641,244.5844 272.3875,245.1641 Q273.0109,245.7328 274.1266,245.7328 Q274.7828,245.7328 275.2422,245.5578 Q275.5156,245.4484 275.8109,245.1422 Q275.9969,244.9562 276.0953,244.9016 Q276.2047,244.8469 276.3469,244.8469 Q276.5766,244.8469 276.7516,245.0328 Q276.9375,245.2078 276.9375,245.4484 Q276.9375,245.6891 276.6969,245.9734 Q276.3469,246.3781 275.7891,246.6078 Q275.0344,246.925 274.1266,246.925 Q273.0656,246.925 272.2234,246.4875 Q271.5344,246.1375 271.0531,245.3937 Q270.5719,244.6391 270.5719,243.7422 L270.5719,242.9328 Q270.5719,242.0031 270.9984,241.2047 Q271.4359,240.3953 272.2016,239.9687 Q272.9672,239.5312 273.8312,239.5312 Q274.3453,239.5312 274.7937,239.6516 Q275.2531,239.7609 275.6359,240.0125 Z " fill="#000000"/><text fill="#000000" font-family="sans-serif" font-size="9.8" lengthAdjust="spacing" textLength="63.7335" x="283.5" y="246.9578">StatefulWidget</text><line style="stroke:#181818;stroke-width:0.35;" x1="263.9" x2="348.6335" y1="254.1" y2="254.1"/><line style="stroke:#181818;stroke-width:0.35;" x1="263.9" x2="348.6335" y1="259.7" y2="259.7"/></g><!--class _HomePageState--><g class="entity" data-entity="_HomePageState" data-source-line="14" data-uid="ent0008" id="entity__HomePageState"><rect fill="#F1F1F1" height="541.9559" rx="1.75" ry="1.75" style="stroke:#181818;stroke-width:0.35;" width="193.6238" x="435.4" y="357.7"/><ellipse cx="490.5561" cy="368.9" fill="#ADD1B2" rx="7.7" ry="7.7" style="stroke:#181818;stroke-width:0.7;"/><path d="M492.492,366.0125 Q492.6014,365.8594 492.7327,365.7828 Q492.8639,365.7062 493.017,365.7062 Q493.2795,365.7062 493.4436,365.8922 Q493.6077,366.0672 493.6077,366.4937 L493.6077,367.5109 Q493.6077,367.9375 493.4436,368.1234 Q493.2795,368.3094 493.017,368.3094 Q492.7764,368.3094 492.6342,368.1672 Q492.492,368.0359 492.4155,367.675 Q492.3827,367.4234 492.2514,367.2922 Q492.0217,367.0297 491.5952,366.8766 Q491.1686,366.7234 490.7311,366.7234 Q490.1952,366.7234 489.7467,366.9531 Q489.3092,367.1828 488.9592,367.7078 Q488.6202,368.2328 488.6202,368.9547 L488.6202,369.7203 Q488.6202,370.5844 489.2436,371.1641 Q489.867,371.7328 490.9827,371.7328 Q491.6389,371.7328 492.0983,371.5578 Q492.3717,371.4484 492.667,371.1422 Q492.853,370.9562 492.9514,370.9016 Q493.0608,370.8469 493.203,370.8469 Q493.4327,370.8469 493.6077,371.0328 Q493.7936,371.2078 493.7936,371.4484 Q493.7936,371.6891 493.553,371.9734 Q493.203,372.3781 492.6452,372.6078 Q491.8905,372.925 490.9827,372.925 Q489.9217,372.925 489.0795,372.4875 Q488.3905,372.1375 487.9092,371.3937 Q487.428,370.6391 487.428,369.7422 L487.428,368.9328 Q487.428,368.0031 487.8545,367.2047 Q488.292,366.3953 489.0577,365.9687 Q489.8233,365.5312 490.6874,365.5312 Q491.2014,365.5312 491.6499,365.6516 Q492.1092,365.7609 492.492,366.0125 Z " fill="#000000"/><text fill="#000000" font-family="sans-serif" font-size="9.8" lengthAdjust="spacing" textLength="77.3616" x="504.9061" y="372.9578">_HomePageState</text><line style="stroke:#181818;stroke-width:0.35;" x1="436.1" x2="628.3238" y1="380.1" y2="380.1"/><line style="stroke:#181818;stroke-width:0.7;" x1="436.1" x2="628.3238" y1="385.7" y2="385.7"/><text fill="#000000" font-family="sans-serif" font-size="9.8" lengthAdjust="spacing" textLength="74.6245" x="449.4" y="399.0752">username: String</text><text fill="#000000" font-family="sans-serif" font-size="9.8" lengthAdjust="spacing" textLength="98.0622" x="449.4" y="412.11">selectedAudio: String?</text><text fill="#000000" font-family="sans-serif" font-size="9.8" lengthAdjust="spacing" textLength="84.4341" x="449.4" y="425.1447">currentAudioIdx: int</text><text fill="#000000" font-family="sans-serif" font-size="9.8" lengthAdjust="spacing" textLength="63.1928" x="449.4" y="438.1795">isPlaying: bool</text><text fill="#000000" font-family="sans-serif" font-size="9.8" lengthAdjust="spacing" textLength="65.9299" x="449.4" y="451.2143">isLoading: bool</text><text fill="#000000" font-family="sans-serif" font-size="9.8" lengthAdjust="spacing" textLength="68.1071" x="449.4" y="464.249">panelHide: bool</text><text fill="#000000" font-family="sans-serif" font-size="9.8" lengthAdjust="spacing" textLength="47.3922" x="449.4" y="477.2838">player: null</text><text fill="#000000" font-family="sans-serif" font-size="9.8" lengthAdjust="spacing" textLength="175.4238" x="449.4" y="490.3186">downloadedNotifier: ValueNotifier&lt;bool&gt;</text><text fill="#000000" font-family="sans-serif" font-size="9.8" lengthAdjust="spacing" textLength="77.9023" x="449.4" y="503.3533">duration: Duration</text><text fill="#000000" font-family="sans-serif" font-size="9.8" lengthAdjust="spacing" textLength="76.2658" x="449.4" y="516.3881">position: Duration</text><rect fill="none" height="4.2" style="stroke:#C82930;stroke-width:0.7;" width="4.2" x="441" y="524.315"/><text fill="#000000" font-family="sans-serif" font-size="9.8" lengthAdjust="spacing" textLength="114.9107" x="449.4" y="529.4229">driveService: DriveService</text><rect fill="none" height="4.2" style="stroke:#C82930;stroke-width:0.7;" width="4.2" x="441" y="537.3498"/><text fill="#000000" font-family="sans-serif" font-size="9.8" lengthAdjust="spacing" textLength="110.0347" x="449.4" y="542.4576">authService: AuthService</text><text fill="#000000" font-family="sans-serif" font-size="9.8" lengthAdjust="spacing" textLength="132.8838" x="449.4" y="555.4924">trackers: List&lt;TrackerService&gt;</text><text fill="#000000" font-family="sans-serif" font-size="9.8" lengthAdjust="spacing" textLength="142.1766" x="449.4" y="568.5271">files: List&lt;Map&lt;String, String&gt;&gt;?</text><text fill="#000000" font-family="sans-serif" font-size="9.8" lengthAdjust="spacing" textLength="129.1083" x="449.4" y="581.5619">filesShare: Map&lt;String, bool&gt;</text><text fill="#000000" font-family="sans-serif" font-size="9.8" lengthAdjust="spacing" textLength="120.9353" x="449.4" y="594.5967">filesLike: Map&lt;String, bool&gt;</text><text fill="#000000" font-family="sans-serif" font-size="9.8" lengthAdjust="spacing" textLength="136.1664" x="449.4" y="607.6314">filesInTracker: Map&lt;String, int&gt;</text><text fill="#000000" font-family="sans-serif" font-size="9.8" lengthAdjust="spacing" textLength="65.3604" x="449.4" y="620.6662">initState(): void</text><text fill="#000000" font-family="sans-serif" font-size="9.8" lengthAdjust="spacing" textLength="63.7287" x="449.4" y="633.701">dispose(): void</text><rect fill="#F24D5C" height="4.2" style="stroke:#C82930;stroke-width:0.7;" width="4.2" x="441" y="641.6279"/><text fill="#000000" font-family="sans-serif" font-size="9.8" lengthAdjust="spacing" textLength="74.6197" x="449.4" y="646.7357">_loadFiles(): void</text><rect fill="#F24D5C" height="4.2" style="stroke:#C82930;stroke-width:0.7;" width="4.2" x="441" y="654.6627"/><text fill="#000000" font-family="sans-serif" font-size="9.8" lengthAdjust="spacing" textLength="80.0796" x="449.4" y="659.7705">_toggleLike(): void</text><rect fill="#F24D5C" height="4.2" style="stroke:#C82930;stroke-width:0.7;" width="4.2" x="441" y="667.6975"/><text fill="#000000" font-family="sans-serif" font-size="9.8" lengthAdjust="spacing" textLength="88.2526" x="449.4" y="672.8053">_toggleShare(): void</text><rect fill="#F24D5C" height="4.2" style="stroke:#C82930;stroke-width:0.7;" width="4.2" x="441" y="680.7322"/><text fill="#000000" font-family="sans-serif" font-size="9.8" lengthAdjust="spacing" textLength="112.7287" x="449.4" y="685.84">_registerToTracker(): void</text><rect fill="#F24D5C" height="4.2" style="stroke:#C82930;stroke-width:0.7;" width="4.2" x="441" y="693.767"/><text fill="#000000" font-family="sans-serif" font-size="9.8" lengthAdjust="spacing" textLength="135.0562" x="449.4" y="698.8748">_unregisterFromTracker(): void</text><rect fill="#F24D5C" height="4.2" style="stroke:#C82930;stroke-width:0.7;" width="4.2" x="441" y="706.8018"/><text fill="#000000" font-family="sans-serif" font-size="9.8" lengthAdjust="spacing" textLength="101.3018" x="449.4" y="711.9096">_sendToTracker(): void</text><rect fill="#F24D5C" height="4.2" style="stroke:#C82930;stroke-width:0.7;" width="4.2" x="441" y="719.8365"/><text fill="#000000" font-family="sans-serif" font-size="9.8" lengthAdjust="spacing" textLength="117.1119" x="449.4" y="724.9443">_pickAndUploadFile(): void</text><rect fill="#F24D5C" height="4.2" style="stroke:#C82930;stroke-width:0.7;" width="4.2" x="441" y="732.8713"/><text fill="#000000" font-family="sans-serif" font-size="9.8" lengthAdjust="spacing" textLength="77.8928" x="449.4" y="737.9791">_deleteFile(): void</text><rect fill="#F24D5C" height="4.2" style="stroke:#C82930;stroke-width:0.7;" width="4.2" x="441" y="745.9061"/><text fill="#000000" font-family="sans-serif" font-size="9.8" lengthAdjust="spacing" textLength="102.9383" x="449.4" y="751.0139">_confirmSignOut(): void</text><rect fill="#F24D5C" height="4.2" style="stroke:#C82930;stroke-width:0.7;" width="4.2" x="441" y="758.9408"/><text fill="#000000" font-family="sans-serif" font-size="9.8" lengthAdjust="spacing" textLength="95.8562" x="449.4" y="764.0486">_confirmDelete(): void</text><rect fill="#F24D5C" height="4.2" style="stroke:#C82930;stroke-width:0.7;" width="4.2" x="441" y="771.9756"/><text fill="#000000" font-family="sans-serif" font-size="9.8" lengthAdjust="spacing" textLength="78.4431" x="449.4" y="777.0834">_playAudio(): void</text><rect fill="#F24D5C" height="4.2" style="stroke:#C82930;stroke-width:0.7;" width="4.2" x="441" y="785.0104"/><text fill="#000000" font-family="sans-serif" font-size="9.8" lengthAdjust="spacing" textLength="108.9532" x="449.4" y="790.1182">_togglePlayPause(): void</text><rect fill="#F24D5C" height="4.2" style="stroke:#C82930;stroke-width:0.7;" width="4.2" x="441" y="798.0451"/><text fill="#000000" font-family="sans-serif" font-size="9.8" lengthAdjust="spacing" textLength="73.5287" x="449.4" y="803.1529">_playNext(): void</text><rect fill="#F24D5C" height="4.2" style="stroke:#C82930;stroke-width:0.7;" width="4.2" x="441" y="811.0799"/><text fill="#000000" font-family="sans-serif" font-size="9.8" lengthAdjust="spacing" textLength="91.5065" x="449.4" y="816.1877">_playPrevious(): void</text><rect fill="#F24D5C" height="4.2" style="stroke:#C82930;stroke-width:0.7;" width="4.2" x="441" y="824.1146"/><text fill="#000000" font-family="sans-serif" font-size="9.8" lengthAdjust="spacing" textLength="107.8383" x="449.4" y="829.2225">_formatDuration(): String</text><rect fill="#F24D5C" height="4.2" style="stroke:#C82930;stroke-width:0.7;" width="4.2" x="441" y="837.1494"/><text fill="#000000" font-family="sans-serif" font-size="9.8" lengthAdjust="spacing" textLength="96.9616" x="449.4" y="842.2572">_loadPrevState(): void</text><rect fill="#F24D5C" height="4.2" style="stroke:#C82930;stroke-width:0.7;" width="4.2" x="441" y="850.1842"/><text fill="#000000" font-family="sans-serif" font-size="9.8" lengthAdjust="spacing" textLength="111.1161" x="449.4" y="855.292">_savePrevPosition(): void</text><rect fill="#F24D5C" height="4.2" style="stroke:#C82930;stroke-width:0.7;" width="4.2" x="441" y="863.2189"/><text fill="#000000" font-family="sans-serif" font-size="9.8" lengthAdjust="spacing" textLength="104.0484" x="449.4" y="868.3268">_saveAudioState(): void</text><rect fill="#F24D5C" height="4.2" style="stroke:#C82930;stroke-width:0.7;" width="4.2" x="441" y="876.2537"/><text fill="#000000" font-family="sans-serif" font-size="9.8" lengthAdjust="spacing" textLength="113.8484" x="449.4" y="881.3615">_restoreAudioState(): void</text><text fill="#000000" font-family="sans-serif" font-size="9.8" lengthAdjust="spacing" textLength="63.1784" x="449.4" y="894.3963">build(): Widget</text></g><!--class State--><g class="entity" data-entity="State" data-source-line="56" data-uid="ent0009" id="entity_State"><rect fill="#F1F1F1" height="33.6" rx="1.75" ry="1.75" style="stroke:#181818;stroke-width:0.35;" width="45.2826" x="68.25" y="813.4"/><ellipse cx="78.75" cy="824.6" fill="#ADD1B2" rx="7.7" ry="7.7" style="stroke:#181818;stroke-width:0.7;"/><path d="M80.6859,821.7125 Q80.7953,821.5594 80.9266,821.4828 Q81.0578,821.4062 81.2109,821.4062 Q81.4734,821.4062 81.6375,821.5922 Q81.8016,821.7672 81.8016,822.1937 L81.8016,823.2109 Q81.8016,823.6375 81.6375,823.8234 Q81.4734,824.0094 81.2109,824.0094 Q80.9703,824.0094 80.8281,823.8672 Q80.6859,823.7359 80.6094,823.375 Q80.5766,823.1234 80.4453,822.9922 Q80.2156,822.7297 79.7891,822.5766 Q79.3625,822.4234 78.925,822.4234 Q78.3891,822.4234 77.9406,822.6531 Q77.5031,822.8828 77.1531,823.4078 Q76.8141,823.9328 76.8141,824.6547 L76.8141,825.4203 Q76.8141,826.2844 77.4375,826.8641 Q78.0609,827.4328 79.1766,827.4328 Q79.8328,827.4328 80.2922,827.2578 Q80.5656,827.1484 80.8609,826.8422 Q81.0469,826.6562 81.1453,826.6016 Q81.2547,826.5469 81.3969,826.5469 Q81.6266,826.5469 81.8016,826.7328 Q81.9875,826.9078 81.9875,827.1484 Q81.9875,827.3891 81.7469,827.6734 Q81.3969,828.0781 80.8391,828.3078 Q80.0844,828.625 79.1766,828.625 Q78.1156,828.625 77.2734,828.1875 Q76.5844,827.8375 76.1031,827.0937 Q75.6219,826.3391 75.6219,825.4422 L75.6219,824.6328 Q75.6219,823.7031 76.0484,822.9047 Q76.4859,822.0953 77.2516,821.6687 Q78.0172,821.2312 78.8812,821.2312 Q79.3953,821.2312 79.8437,821.3516 Q80.3031,821.4609 80.6859,821.7125 Z " fill="#000000"/><text fill="#000000" font-family="sans-serif" font-size="9.8" lengthAdjust="spacing" textLength="22.8826" x="88.55" y="828.6578">State</text><line style="stroke:#181818;stroke-width:0.35;" x1="68.95" x2="112.8326" y1="835.8" y2="835.8"/><line style="stroke:#181818;stroke-width:0.35;" x1="68.95" x2="112.8326" y1="841.4" y2="841.4"/></g><!--class ValueNotifier--><g class="entity" data-entity="ValueNotifier" data-source-line="57" data-uid="ent0011" id="entity_ValueNotifier"><rect fill="#F1F1F1" height="33.6" rx="1.75" ry="1.75" style="stroke:#181818;stroke-width:0.35;" width="78.506" x="732.2" y="570.5"/><ellipse cx="742.7" cy="581.7" fill="#ADD1B2" rx="7.7" ry="7.7" style="stroke:#181818;stroke-width:0.7;"/><path d="M744.6359,578.8125 Q744.7453,578.6594 744.8766,578.5828 Q745.0078,578.5062 745.1609,578.5062 Q745.4234,578.5062 745.5875,578.6922 Q745.7516,578.8672 745.7516,579.2937 L745.7516,580.3109 Q745.7516,580.7375 745.5875,580.9234 Q745.4234,581.1094 745.1609,581.1094 Q744.9203,581.1094 744.7781,580.9672 Q744.6359,580.8359 744.5594,580.475 Q744.5266,580.2234 744.3953,580.0922 Q744.1656,579.8297 743.7391,579.6766 Q743.3125,579.5234 742.875,579.5234 Q742.3391,579.5234 741.8906,579.7531 Q741.4531,579.9828 741.1031,580.5078 Q740.7641,581.0328 740.7641,581.7547 L740.7641,582.5203 Q740.7641,583.3844 741.3875,583.9641 Q742.0109,584.5328 743.1266,584.5328 Q743.7828,584.5328 744.2422,584.3578 Q744.5156,584.2484 744.8109,583.9422 Q744.9969,583.7562 745.0953,583.7016 Q745.2047,583.6469 745.3469,583.6469 Q745.5766,583.6469 745.7516,583.8328 Q745.9375,584.0078 745.9375,584.2484 Q745.9375,584.4891 745.6969,584.7734 Q745.3469,585.1781 744.7891,585.4078 Q744.0344,585.725 743.1266,585.725 Q742.0656,585.725 741.2234,585.2875 Q740.5344,584.9375 740.0531,584.1937 Q739.5719,583.4391 739.5719,582.5422 L739.5719,581.7328 Q739.5719,580.8031 739.9984,580.0047 Q740.4359,579.1953 741.2016,578.7687 Q741.9672,578.3312 742.8312,578.3312 Q743.3453,578.3312 743.7937,578.4516 Q744.2531,578.5609 744.6359,578.8125 Z " fill="#000000"/><text fill="#000000" font-family="sans-serif" font-size="9.8" lengthAdjust="spacing" textLength="56.106" x="752.5" y="585.7578">ValueNotifier</text><line style="stroke:#181818;stroke-width:0.35;" x1="732.9" x2="810.006" y1="592.9" y2="592.9"/><line style="stroke:#181818;stroke-width:0.35;" x1="732.9" x2="810.006" y1="598.5" y2="598.5"/></g><!--class DriveService--><g class="entity" data-entity="DriveService" data-source-line="58" data-uid="ent0013" id="entity_DriveService"><rect fill="#F1F1F1" height="203.052" rx="1.75" ry="1.75" style="stroke:#181818;stroke-width:0.35;" width="200.1077" x="671.3" y="764.4"/><ellipse cx="740.6058" cy="775.6" fill="#ADD1B2" rx="7.7" ry="7.7" style="stroke:#181818;stroke-width:0.7;"/><path d="M742.5417,772.7125 Q742.6511,772.5594 742.7824,772.4828 Q742.9136,772.4062 743.0667,772.4062 Q743.3292,772.4062 743.4933,772.5922 Q743.6574,772.7672 743.6574,773.1937 L743.6574,774.2109 Q743.6574,774.6375 743.4933,774.8234 Q743.3292,775.0094 743.0667,775.0094 Q742.8261,775.0094 742.6839,774.8672 Q742.5417,774.7359 742.4652,774.375 Q742.4324,774.1234 742.3011,773.9922 Q742.0714,773.7297 741.6449,773.5766 Q741.2183,773.4234 740.7808,773.4234 Q740.2449,773.4234 739.7964,773.6531 Q739.3589,773.8828 739.0089,774.4078 Q738.6699,774.9328 738.6699,775.6547 L738.6699,776.4203 Q738.6699,777.2844 739.2933,777.8641 Q739.9167,778.4328 741.0324,778.4328 Q741.6886,778.4328 742.148,778.2578 Q742.4214,778.1484 742.7167,777.8422 Q742.9027,777.6562 743.0011,777.6016 Q743.1105,777.5469 743.2527,777.5469 Q743.4824,777.5469 743.6574,777.7328 Q743.8433,777.9078 743.8433,778.1484 Q743.8433,778.3891 743.6027,778.6734 Q743.2527,779.0781 742.6949,779.3078 Q741.9402,779.625 741.0324,779.625 Q739.9714,779.625 739.1292,779.1875 Q738.4402,778.8375 737.9589,778.0937 Q737.4777,777.3391 737.4777,776.4422 L737.4777,775.6328 Q737.4777,774.7031 737.9042,773.9047 Q738.3417,773.0953 739.1074,772.6687 Q739.873,772.2312 740.7371,772.2312 Q741.2511,772.2312 741.6996,772.3516 Q742.1589,772.4609 742.5417,772.7125 Z " fill="#000000"/><text fill="#000000" font-family="sans-serif" font-size="9.8" lengthAdjust="spacing" textLength="55.5461" x="754.9558" y="779.6578">DriveService</text><line style="stroke:#181818;stroke-width:0.35;" x1="672" x2="870.7077" y1="786.8" y2="786.8"/><line style="stroke:#181818;stroke-width:0.7;" x1="672" x2="870.7077" y1="792.4" y2="792.4"/><rect fill="none" height="4.2" style="stroke:#C82930;stroke-width:0.7;" width="4.2" x="676.9" y="800.6674"/><text fill="#000000" font-family="sans-serif" font-size="9.8" lengthAdjust="spacing" textLength="110.0347" x="685.3" y="805.7752">authService: AuthService</text><text fill="#000000" font-family="sans-serif" font-size="9.8" lengthAdjust="spacing" textLength="164.2313" x="685.3" y="818.81">getAuthHeaders(): Map&lt;String, String</text><text fill="#000000" font-family="sans-serif" font-size="9.8" lengthAdjust="spacing" textLength="92.5976" x="685.3" y="831.8447">getFolderId(): String?</text><text fill="#000000" font-family="sans-serif" font-size="9.8" lengthAdjust="spacing" textLength="88.2431" x="685.3" y="844.8795">uploadFile(): String?</text><text fill="#000000" font-family="sans-serif" font-size="9.8" lengthAdjust="spacing" textLength="129.0844" x="685.3" y="857.9143">uploadFileFromLink(): String?</text><text fill="#000000" font-family="sans-serif" font-size="9.8" lengthAdjust="spacing" textLength="118.2077" x="685.3" y="870.949">getDownloadLink(): String?</text><text fill="#000000" font-family="sans-serif" font-size="9.8" lengthAdjust="spacing" textLength="98.0383" x="685.3" y="883.9838">createFolder(): String?</text><text fill="#000000" font-family="sans-serif" font-size="9.8" lengthAdjust="spacing" textLength="181.9077" x="685.3" y="897.0186">listFilesInFolder(): MapString, String[0..*]?</text><text fill="#000000" font-family="sans-serif" font-size="9.8" lengthAdjust="spacing" textLength="79.5054" x="685.3" y="910.0533">getFileUrl(): String</text><text fill="#000000" font-family="sans-serif" font-size="9.8" lengthAdjust="spacing" textLength="96.397" x="685.3" y="923.0881">makeFilePublic(): void</text><text fill="#000000" font-family="sans-serif" font-size="9.8" lengthAdjust="spacing" textLength="134.5251" x="685.3" y="936.1229">revokePublicPermission(): void</text><text fill="#000000" font-family="sans-serif" font-size="9.8" lengthAdjust="spacing" textLength="79.5149" x="685.3" y="949.1576">copyFile(): String?</text><text fill="#000000" font-family="sans-serif" font-size="9.8" lengthAdjust="spacing" textLength="72.4425" x="685.3" y="962.1924">deleteFile(): void</text></g><!--class AuthService--><g class="entity" data-entity="AuthService" data-source-line="59" data-uid="ent0015" id="entity_AuthService"><rect fill="#F1F1F1" height="111.8086" rx="1.75" ry="1.75" style="stroke:#181818;stroke-width:0.35;" width="187.8816" x="913.5" y="740.6"/><ellipse cx="978.047" cy="751.8" fill="#ADD1B2" rx="7.7" ry="7.7" style="stroke:#181818;stroke-width:0.7;"/><path d="M979.9829,748.9125 Q980.0923,748.7594 980.2235,748.6828 Q980.3548,748.6062 980.5079,748.6062 Q980.7704,748.6062 980.9345,748.7922 Q981.0985,748.9672 981.0985,749.3937 L981.0985,750.4109 Q981.0985,750.8375 980.9345,751.0234 Q980.7704,751.2094 980.5079,751.2094 Q980.2673,751.2094 980.1251,751.0672 Q979.9829,750.9359 979.9063,750.575 Q979.8735,750.3234 979.7423,750.1922 Q979.5126,749.9297 979.086,749.7766 Q978.6595,749.6234 978.222,749.6234 Q977.686,749.6234 977.2376,749.8531 Q976.8001,750.0828 976.4501,750.6078 Q976.111,751.1328 976.111,751.8547 L976.111,752.6203 Q976.111,753.4844 976.7345,754.0641 Q977.3579,754.6328 978.4735,754.6328 Q979.1298,754.6328 979.5892,754.4578 Q979.8626,754.3484 980.1579,754.0422 Q980.3438,753.8562 980.4423,753.8016 Q980.5517,753.7469 980.6938,753.7469 Q980.9235,753.7469 981.0985,753.9328 Q981.2845,754.1078 981.2845,754.3484 Q981.2845,754.5891 981.0438,754.8734 Q980.6938,755.2781 980.136,755.5078 Q979.3813,755.825 978.4735,755.825 Q977.4126,755.825 976.5704,755.3875 Q975.8813,755.0375 975.4001,754.2937 Q974.9188,753.5391 974.9188,752.6422 L974.9188,751.8328 Q974.9188,750.9031 975.3454,750.1047 Q975.7829,749.2953 976.5485,748.8687 Q977.3142,748.4312 978.1782,748.4312 Q978.6923,748.4312 979.1407,748.5516 Q979.6001,748.6609 979.9829,748.9125 Z " fill="#000000"/><text fill="#000000" font-family="sans-serif" font-size="9.8" lengthAdjust="spacing" textLength="52.8377" x="992.397" y="755.8578">AuthService</text><line style="stroke:#181818;stroke-width:0.35;" x1="914.2" x2="1100.6816" y1="763" y2="763"/><line style="stroke:#181818;stroke-width:0.7;" x1="914.2" x2="1100.6816" y1="768.6" y2="768.6"/><rect fill="none" height="4.2" style="stroke:#C82930;stroke-width:0.7;" width="4.2" x="919.1" y="776.8674"/><text fill="#000000" font-family="sans-serif" font-size="9.8" lengthAdjust="spacing" textLength="118.758" x="927.5" y="781.9752">firebaseAuth: FirebaseAuth</text><rect fill="none" height="4.2" style="stroke:#C82930;stroke-width:0.7;" width="4.2" x="919.1" y="789.9021"/><text fill="#000000" font-family="sans-serif" font-size="9.8" lengthAdjust="spacing" textLength="122.0502" x="927.5" y="795.01">googleSignIn: GoogleSignIn</text><text fill="#000000" font-family="sans-serif" font-size="9.8" lengthAdjust="spacing" textLength="154.685" x="927.5" y="808.0447">signInWithGoogle(): UserCredential</text><text fill="#000000" font-family="sans-serif" font-size="9.8" lengthAdjust="spacing" textLength="63.7239" x="927.5" y="821.0795">signOut(): void</text><text fill="#000000" font-family="sans-serif" font-size="9.8" lengthAdjust="spacing" textLength="169.6816" x="927.5" y="834.1143">getAuthHeaders2(): Map&lt;String, String</text><text fill="#000000" font-family="sans-serif" font-size="9.8" lengthAdjust="spacing" textLength="89.3054" x="927.5" y="847.149">currentUser(): User?</text></g><!--class LoginPage--><g class="entity" data-entity="LoginPage" data-source-line="60" data-uid="ent0017" id="entity_LoginPage"><rect fill="#F1F1F1" height="46.6348" rx="1.75" ry="1.75" style="stroke:#181818;stroke-width:0.35;" width="71.5784" x="270.55" y="1114.75"/><ellipse cx="282.0907" cy="1125.95" fill="#ADD1B2" rx="7.7" ry="7.7" style="stroke:#181818;stroke-width:0.7;"/><path d="M284.0266,1123.0625 Q284.136,1122.9094 284.2672,1122.8328 Q284.3985,1122.7562 284.5516,1122.7562 Q284.8141,1122.7562 284.9782,1122.9422 Q285.1422,1123.1172 285.1422,1123.5437 L285.1422,1124.5609 Q285.1422,1124.9875 284.9782,1125.1734 Q284.8141,1125.3594 284.5516,1125.3594 Q284.311,1125.3594 284.1688,1125.2172 Q284.0266,1125.0859 283.95,1124.725 Q283.9172,1124.4734 283.786,1124.3422 Q283.5563,1124.0797 283.1297,1123.9266 Q282.7032,1123.7734 282.2657,1123.7734 Q281.7297,1123.7734 281.2813,1124.0031 Q280.8438,1124.2328 280.4938,1124.7578 Q280.1547,1125.2828 280.1547,1126.0047 L280.1547,1126.7703 Q280.1547,1127.6344 280.7782,1128.2141 Q281.4016,1128.7828 282.5172,1128.7828 Q283.1735,1128.7828 283.6329,1128.6078 Q283.9063,1128.4984 284.2016,1128.1922 Q284.3875,1128.0062 284.486,1127.9516 Q284.5954,1127.8969 284.7375,1127.8969 Q284.9672,1127.8969 285.1422,1128.0828 Q285.3282,1128.2578 285.3282,1128.4984 Q285.3282,1128.7391 285.0875,1129.0234 Q284.7375,1129.4281 284.1797,1129.6578 Q283.425,1129.975 282.5172,1129.975 Q281.4563,1129.975 280.6141,1129.5375 Q279.925,1129.1875 279.4438,1128.4437 Q278.9625,1127.6891 278.9625,1126.7922 L278.9625,1125.9828 Q278.9625,1125.0531 279.3891,1124.2547 Q279.8266,1123.4453 280.5922,1123.0187 Q281.3579,1122.5812 282.2219,1122.5812 Q282.736,1122.5812 283.1844,1122.7016 Q283.6438,1122.8109 284.0266,1123.0625 Z " fill="#000000"/><text fill="#000000" font-family="sans-serif" font-size="9.8" lengthAdjust="spacing" textLength="46.8658" x="292.1219" y="1130.0078">LoginPage</text><line style="stroke:#181818;stroke-width:0.35;" x1="271.25" x2="341.4284" y1="1137.15" y2="1137.15"/><line style="stroke:#181818;stroke-width:0.7;" x1="271.25" x2="341.4284" y1="1142.75" y2="1142.75"/><text fill="#000000" font-family="sans-serif" font-size="9.8" lengthAdjust="spacing" textLength="63.1784" x="274.75" y="1156.1252">build(): Widget</text></g><!--class SearchPage--><g class="entity" data-entity="SearchPage" data-source-line="65" data-uid="ent0019" id="entity_SearchPage"><rect fill="#F1F1F1" height="72.7043" rx="1.75" ry="1.75" style="stroke:#181818;stroke-width:0.35;" width="172.9328" x="445.9" y="260.4"/><ellipse cx="502.4223" cy="271.6" fill="#ADD1B2" rx="7.7" ry="7.7" style="stroke:#181818;stroke-width:0.7;"/><path d="M504.3582,268.7125 Q504.4676,268.5594 504.5988,268.4828 Q504.7301,268.4062 504.8832,268.4062 Q505.1457,268.4062 505.3098,268.5922 Q505.4738,268.7672 505.4738,269.1937 L505.4738,270.2109 Q505.4738,270.6375 505.3098,270.8234 Q505.1457,271.0094 504.8832,271.0094 Q504.6426,271.0094 504.5004,270.8672 Q504.3582,270.7359 504.2816,270.375 Q504.2488,270.1234 504.1176,269.9922 Q503.8879,269.7297 503.4613,269.5766 Q503.0348,269.4234 502.5973,269.4234 Q502.0613,269.4234 501.6129,269.6531 Q501.1754,269.8828 500.8254,270.4078 Q500.4863,270.9328 500.4863,271.6547 L500.4863,272.4203 Q500.4863,273.2844 501.1098,273.8641 Q501.7332,274.4328 502.8488,274.4328 Q503.5051,274.4328 503.9645,274.2578 Q504.2379,274.1484 504.5332,273.8422 Q504.7191,273.6562 504.8176,273.6016 Q504.927,273.5469 505.0691,273.5469 Q505.2988,273.5469 505.4738,273.7328 Q505.6598,273.9078 505.6598,274.1484 Q505.6598,274.3891 505.4191,274.6734 Q505.0691,275.0781 504.5113,275.3078 Q503.7566,275.625 502.8488,275.625 Q501.7879,275.625 500.9457,275.1875 Q500.2566,274.8375 499.7754,274.0937 Q499.2941,273.3391 499.2941,272.4422 L499.2941,271.6328 Q499.2941,270.7031 499.7207,269.9047 Q500.1582,269.0953 500.9238,268.6687 Q501.6895,268.2312 502.5535,268.2312 Q503.0676,268.2312 503.516,268.3516 Q503.9754,268.4609 504.3582,268.7125 Z " fill="#000000"/><text fill="#000000" font-family="sans-serif" font-size="9.8" lengthAdjust="spacing" textLength="53.9383" x="516.7723" y="275.6578">SearchPage</text><line style="stroke:#181818;stroke-width:0.35;" x1="446.6" x2="618.1328" y1="282.8" y2="282.8"/><line style="stroke:#181818;stroke-width:0.7;" x1="446.6" x2="618.1328" y1="288.4" y2="288.4"/><text fill="#000000" font-family="sans-serif" font-size="9.8" lengthAdjust="spacing" textLength="132.8838" x="450.1" y="301.7752">trackers: List&lt;TrackerService&gt;</text><text fill="#000000" font-family="sans-serif" font-size="9.8" lengthAdjust="spacing" textLength="164.5328" x="450.1" y="314.81">downloadedNotif: ValueNotifier&lt;bool&gt;</text><text fill="#000000" font-family="sans-serif" font-size="9.8" lengthAdjust="spacing" textLength="144.6361" x="450.1" y="327.8447">createState(): State&lt;SearchPage</text></g><!--class _SearchPageState--><g class="entity" data-entity="_SearchPageState" data-source-line="73" data-uid="ent0022" id="entity__SearchPageState"><rect fill="#F1F1F1" height="163.9477" rx="1.75" ry="1.75" style="stroke:#181818;stroke-width:0.35;" width="174.5406" x="219.1" y="854.7"/><ellipse cx="262.2597" cy="865.9" fill="#ADD1B2" rx="7.7" ry="7.7" style="stroke:#181818;stroke-width:0.7;"/><path d="M264.1957,863.0125 Q264.305,862.8594 264.4363,862.7828 Q264.5675,862.7062 264.7207,862.7062 Q264.9832,862.7062 265.1472,862.8922 Q265.3113,863.0672 265.3113,863.4937 L265.3113,864.5109 Q265.3113,864.9375 265.1472,865.1234 Q264.9832,865.3094 264.7207,865.3094 Q264.48,865.3094 264.3378,865.1672 Q264.1957,865.0359 264.1191,864.675 Q264.0863,864.4234 263.955,864.2922 Q263.7253,864.0297 263.2988,863.8766 Q262.8722,863.7234 262.4347,863.7234 Q261.8988,863.7234 261.4503,863.9531 Q261.0128,864.1828 260.6628,864.7078 Q260.3238,865.2328 260.3238,865.9547 L260.3238,866.7203 Q260.3238,867.5844 260.9472,868.1641 Q261.5707,868.7328 262.6863,868.7328 Q263.3425,868.7328 263.8019,868.5578 Q264.0753,868.4484 264.3707,868.1422 Q264.5566,867.9562 264.655,867.9016 Q264.7644,867.8469 264.9066,867.8469 Q265.1363,867.8469 265.3113,868.0328 Q265.4972,868.2078 265.4972,868.4484 Q265.4972,868.6891 265.2566,868.9734 Q264.9066,869.3781 264.3488,869.6078 Q263.5941,869.925 262.6863,869.925 Q261.6253,869.925 260.7832,869.4875 Q260.0941,869.1375 259.6128,868.3937 Q259.1316,867.6391 259.1316,866.7422 L259.1316,865.9328 Q259.1316,865.0031 259.5582,864.2047 Q259.9957,863.3953 260.7613,862.9687 Q261.5269,862.5312 262.391,862.5312 Q262.905,862.5312 263.3535,862.6516 Q263.8128,862.7609 264.1957,863.0125 Z " fill="#000000"/><text fill="#000000" font-family="sans-serif" font-size="9.8" lengthAdjust="spacing" textLength="82.2712" x="276.6097" y="869.9578">_SearchPageState</text><line style="stroke:#181818;stroke-width:0.35;" x1="219.8" x2="392.9406" y1="877.1" y2="877.1"/><line style="stroke:#181818;stroke-width:0.7;" x1="219.8" x2="392.9406" y1="882.7" y2="882.7"/><text fill="#000000" font-family="sans-serif" font-size="9.8" lengthAdjust="spacing" textLength="87.7119" x="233.1" y="896.0752">isDownloading: bool</text><text fill="#000000" font-family="sans-serif" font-size="9.8" lengthAdjust="spacing" textLength="132.9269" x="233.1" y="909.11">downloadingFiles: Set&lt;String&gt;</text><rect fill="none" height="4.2" style="stroke:#C82930;stroke-width:0.7;" width="4.2" x="224.7" y="917.0369"/><text fill="#000000" font-family="sans-serif" font-size="9.8" lengthAdjust="spacing" textLength="114.9107" x="233.1" y="922.1447">driveService: DriveService</text><rect fill="none" height="4.2" style="stroke:#C82930;stroke-width:0.7;" width="4.2" x="224.7" y="930.0717"/><text fill="#000000" font-family="sans-serif" font-size="9.8" lengthAdjust="spacing" textLength="156.3406" x="233.1" y="935.1795">downloadService: DownloadService</text><text fill="#000000" font-family="sans-serif" font-size="9.8" lengthAdjust="spacing" textLength="148.1867" x="233.1" y="948.2143">filteredAudios: List&lt;SharedAudio&gt;</text><text fill="#000000" font-family="sans-serif" font-size="9.8" lengthAdjust="spacing" textLength="65.3604" x="233.1" y="961.249">initState(): void</text><rect fill="#F24D5C" height="4.2" style="stroke:#C82930;stroke-width:0.7;" width="4.2" x="224.7" y="969.176"/><text fill="#000000" font-family="sans-serif" font-size="9.8" lengthAdjust="spacing" textLength="83.879" x="233.1" y="974.2838">_filterAudios(): void</text><rect fill="#F24D5C" height="4.2" style="stroke:#C82930;stroke-width:0.7;" width="4.2" x="224.7" y="982.2107"/><text fill="#000000" font-family="sans-serif" font-size="9.8" lengthAdjust="spacing" textLength="76.7874" x="233.1" y="987.3186">_findTracker(): int</text><text fill="#000000" font-family="sans-serif" font-size="9.8" lengthAdjust="spacing" textLength="144.8897" x="233.1" y="1000.3533">showDownloadNotification(): void</text><text fill="#000000" font-family="sans-serif" font-size="9.8" lengthAdjust="spacing" textLength="63.1784" x="233.1" y="1013.3881">build(): Widget</text></g><!--class DownloadService--><g class="entity" data-entity="DownloadService" data-source-line="88" data-uid="ent0025" id="entity_DownloadService"><rect fill="#F1F1F1" height="72.7043" rx="1.75" ry="1.75" style="stroke:#181818;stroke-width:0.35;" width="133.1107" x="465.85" y="973.7"/><ellipse cx="491.8524" cy="984.9" fill="#ADD1B2" rx="7.7" ry="7.7" style="stroke:#181818;stroke-width:0.7;"/><path d="M493.7883,982.0125 Q493.8977,981.8594 494.0289,981.7828 Q494.1602,981.7062 494.3133,981.7062 Q494.5758,981.7062 494.7399,981.8922 Q494.9039,982.0672 494.9039,982.4937 L494.9039,983.5109 Q494.9039,983.9375 494.7399,984.1234 Q494.5758,984.3094 494.3133,984.3094 Q494.0727,984.3094 493.9305,984.1672 Q493.7883,984.0359 493.7117,983.675 Q493.6789,983.4234 493.5477,983.2922 Q493.318,983.0297 492.8914,982.8766 Q492.4649,982.7234 492.0274,982.7234 Q491.4914,982.7234 491.043,982.9531 Q490.6055,983.1828 490.2555,983.7078 Q489.9164,984.2328 489.9164,984.9547 L489.9164,985.7203 Q489.9164,986.5844 490.5399,987.1641 Q491.1633,987.7328 492.2789,987.7328 Q492.9352,987.7328 493.3946,987.5578 Q493.668,987.4484 493.9633,987.1422 Q494.1492,986.9562 494.2477,986.9016 Q494.3571,986.8469 494.4992,986.8469 Q494.7289,986.8469 494.9039,987.0328 Q495.0899,987.2078 495.0899,987.4484 Q495.0899,987.6891 494.8492,987.9734 Q494.4992,988.3781 493.9414,988.6078 Q493.1867,988.925 492.2789,988.925 Q491.218,988.925 490.3758,988.4875 Q489.6867,988.1375 489.2055,987.3937 Q488.7242,986.6391 488.7242,985.7422 L488.7242,984.9328 Q488.7242,984.0031 489.1508,983.2047 Q489.5883,982.3953 490.3539,981.9687 Q491.1196,981.5312 491.9836,981.5312 Q492.4977,981.5312 492.9461,981.6516 Q493.4055,981.7609 493.7883,982.0125 Z " fill="#000000"/><text fill="#000000" font-family="sans-serif" font-size="9.8" lengthAdjust="spacing" textLength="76.261" x="505.0973" y="988.9578">DownloadService</text><line style="stroke:#181818;stroke-width:0.35;" x1="466.55" x2="598.2607" y1="996.1" y2="996.1"/><line style="stroke:#181818;stroke-width:0.7;" x1="466.55" x2="598.2607" y1="1001.7" y2="1001.7"/><rect fill="none" height="4.2" style="stroke:#C82930;stroke-width:0.7;" width="4.2" x="471.45" y="1009.9674"/><text fill="#000000" font-family="sans-serif" font-size="9.8" lengthAdjust="spacing" textLength="114.9107" x="479.85" y="1015.0752">driveService: DriveService</text><text fill="#000000" font-family="sans-serif" font-size="9.8" lengthAdjust="spacing" textLength="114.3939" x="479.85" y="1028.11">downloadAndNotify(): void</text><rect fill="#F24D5C" height="4.2" style="stroke:#C82930;stroke-width:0.7;" width="4.2" x="471.45" y="1036.0369"/><text fill="#000000" font-family="sans-serif" font-size="9.8" lengthAdjust="spacing" textLength="106.7568" x="479.85" y="1041.1447">_showNotification(): void</text></g><!--class SharedAudio--><g class="entity" data-entity="SharedAudio" data-source-line="89" data-uid="ent0027" id="entity_SharedAudio"><rect fill="#F1F1F1" height="85.7391" rx="1.75" ry="1.75" style="stroke:#181818;stroke-width:0.35;" width="79.0658" x="51.45" y="506.1"/><ellipse cx="61.95" cy="517.3" fill="#ADD1B2" rx="7.7" ry="7.7" style="stroke:#181818;stroke-width:0.7;"/><path d="M63.8859,514.4125 Q63.9953,514.2594 64.1266,514.1828 Q64.2578,514.1062 64.4109,514.1062 Q64.6734,514.1062 64.8375,514.2922 Q65.0016,514.4672 65.0016,514.8937 L65.0016,515.9109 Q65.0016,516.3375 64.8375,516.5234 Q64.6734,516.7094 64.4109,516.7094 Q64.1703,516.7094 64.0281,516.5672 Q63.8859,516.4359 63.8094,516.075 Q63.7766,515.8234 63.6453,515.6922 Q63.4156,515.4297 62.9891,515.2766 Q62.5625,515.1234 62.125,515.1234 Q61.5891,515.1234 61.1406,515.3531 Q60.7031,515.5828 60.3531,516.1078 Q60.0141,516.6328 60.0141,517.3547 L60.0141,518.1203 Q60.0141,518.9844 60.6375,519.5641 Q61.2609,520.1328 62.3766,520.1328 Q63.0328,520.1328 63.4922,519.9578 Q63.7656,519.8484 64.0609,519.5422 Q64.2469,519.3562 64.3453,519.3016 Q64.4547,519.2469 64.5969,519.2469 Q64.8266,519.2469 65.0016,519.4328 Q65.1875,519.6078 65.1875,519.8484 Q65.1875,520.0891 64.9469,520.3734 Q64.5969,520.7781 64.0391,521.0078 Q63.2844,521.325 62.3766,521.325 Q61.3156,521.325 60.4734,520.8875 Q59.7844,520.5375 59.3031,519.7937 Q58.8219,519.0391 58.8219,518.1422 L58.8219,517.3328 Q58.8219,516.4031 59.2484,515.6047 Q59.6859,514.7953 60.4516,514.3687 Q61.2172,513.9312 62.0812,513.9312 Q62.5953,513.9312 63.0437,514.0516 Q63.5031,514.1609 63.8859,514.4125 Z " fill="#000000"/><text fill="#000000" font-family="sans-serif" font-size="9.8" lengthAdjust="spacing" textLength="56.6658" x="71.75" y="521.3578">SharedAudio</text><line style="stroke:#181818;stroke-width:0.35;" x1="52.15" x2="129.8158" y1="528.5" y2="528.5"/><line style="stroke:#181818;stroke-width:0.7;" x1="52.15" x2="129.8158" y1="534.1" y2="534.1"/><text fill="#000000" font-family="sans-serif" font-size="9.8" lengthAdjust="spacing" textLength="55.5604" x="55.65" y="547.4752">name: String</text><text fill="#000000" font-family="sans-serif" font-size="9.8" lengthAdjust="spacing" textLength="51.7467" x="55.65" y="560.51">fileId: String</text><text fill="#000000" font-family="sans-serif" font-size="9.8" lengthAdjust="spacing" textLength="57.7377" x="55.65" y="573.5447">owner: String</text><text fill="#000000" font-family="sans-serif" font-size="9.8" lengthAdjust="spacing" textLength="45.7509" x="55.65" y="586.5795">link: String</text></g><!--class FirebaseAuth--><g class="entity" data-entity="FirebaseAuth" data-source-line="105" data-uid="ent0028" id="entity_FirebaseAuth"><rect fill="#F1F1F1" height="33.6" rx="1.75" ry="1.75" style="stroke:#181818;stroke-width:0.35;" width="80.688" x="1143.8" y="750.4"/><ellipse cx="1154.3" cy="761.6" fill="#ADD1B2" rx="7.7" ry="7.7" style="stroke:#181818;stroke-width:0.7;"/><path d="M1156.2359,758.7125 Q1156.3453,758.5594 1156.4766,758.4828 Q1156.6078,758.4062 1156.7609,758.4062 Q1157.0234,758.4062 1157.1875,758.5922 Q1157.3516,758.7672 1157.3516,759.1937 L1157.3516,760.2109 Q1157.3516,760.6375 1157.1875,760.8234 Q1157.0234,761.0094 1156.7609,761.0094 Q1156.5203,761.0094 1156.3781,760.8672 Q1156.2359,760.7359 1156.1594,760.375 Q1156.1266,760.1234 1155.9953,759.9922 Q1155.7656,759.7297 1155.3391,759.5766 Q1154.9125,759.4234 1154.475,759.4234 Q1153.9391,759.4234 1153.4906,759.6531 Q1153.0531,759.8828 1152.7031,760.4078 Q1152.3641,760.9328 1152.3641,761.6547 L1152.3641,762.4203 Q1152.3641,763.2844 1152.9875,763.8641 Q1153.6109,764.4328 1154.7266,764.4328 Q1155.3828,764.4328 1155.8422,764.2578 Q1156.1156,764.1484 1156.4109,763.8422 Q1156.5969,763.6562 1156.6953,763.6016 Q1156.8047,763.5469 1156.9469,763.5469 Q1157.1766,763.5469 1157.3516,763.7328 Q1157.5375,763.9078 1157.5375,764.1484 Q1157.5375,764.3891 1157.2969,764.6734 Q1156.9469,765.0781 1156.3891,765.3078 Q1155.6344,765.625 1154.7266,765.625 Q1153.6656,765.625 1152.8234,765.1875 Q1152.1344,764.8375 1151.6531,764.0937 Q1151.1719,763.3391 1151.1719,762.4422 L1151.1719,761.6328 Q1151.1719,760.7031 1151.5984,759.9047 Q1152.0359,759.0953 1152.8016,758.6687 Q1153.5672,758.2312 1154.4312,758.2312 Q1154.9453,758.2312 1155.3937,758.3516 Q1155.8531,758.4609 1156.2359,758.7125 Z " fill="#000000"/><text fill="#000000" font-family="sans-serif" font-size="9.8" lengthAdjust="spacing" textLength="58.288" x="1164.1" y="765.6578">FirebaseAuth</text><line style="stroke:#181818;stroke-width:0.35;" x1="1144.5" x2="1223.788" y1="772.8" y2="772.8"/><line style="stroke:#181818;stroke-width:0.35;" x1="1144.5" x2="1223.788" y1="778.4" y2="778.4"/></g><!--class GoogleSignIn--><g class="entity" data-entity="GoogleSignIn" data-source-line="106" data-uid="ent0030" id="entity_GoogleSignIn"><rect fill="#F1F1F1" height="33.6" rx="1.75" ry="1.75" style="stroke:#181818;stroke-width:0.35;" width="81.7886" x="1143.1" y="808.5"/><ellipse cx="1153.6" cy="819.7" fill="#ADD1B2" rx="7.7" ry="7.7" style="stroke:#181818;stroke-width:0.7;"/><path d="M1155.5359,816.8125 Q1155.6453,816.6594 1155.7766,816.5828 Q1155.9078,816.5062 1156.0609,816.5062 Q1156.3234,816.5062 1156.4875,816.6922 Q1156.6516,816.8672 1156.6516,817.2937 L1156.6516,818.3109 Q1156.6516,818.7375 1156.4875,818.9234 Q1156.3234,819.1094 1156.0609,819.1094 Q1155.8203,819.1094 1155.6781,818.9672 Q1155.5359,818.8359 1155.4594,818.475 Q1155.4266,818.2234 1155.2953,818.0922 Q1155.0656,817.8297 1154.6391,817.6766 Q1154.2125,817.5234 1153.775,817.5234 Q1153.2391,817.5234 1152.7906,817.7531 Q1152.3531,817.9828 1152.0031,818.5078 Q1151.6641,819.0328 1151.6641,819.7547 L1151.6641,820.5203 Q1151.6641,821.3844 1152.2875,821.9641 Q1152.9109,822.5328 1154.0266,822.5328 Q1154.6828,822.5328 1155.1422,822.3578 Q1155.4156,822.2484 1155.7109,821.9422 Q1155.8969,821.7562 1155.9953,821.7016 Q1156.1047,821.6469 1156.2469,821.6469 Q1156.4766,821.6469 1156.6516,821.8328 Q1156.8375,822.0078 1156.8375,822.2484 Q1156.8375,822.4891 1156.5969,822.7734 Q1156.2469,823.1781 1155.6891,823.4078 Q1154.9344,823.725 1154.0266,823.725 Q1152.9656,823.725 1152.1234,823.2875 Q1151.4344,822.9375 1150.9531,822.1937 Q1150.4719,821.4391 1150.4719,820.5422 L1150.4719,819.7328 Q1150.4719,818.8031 1150.8984,818.0047 Q1151.3359,817.1953 1152.1016,816.7687 Q1152.8672,816.3312 1153.7312,816.3312 Q1154.2453,816.3312 1154.6937,816.4516 Q1155.1531,816.5609 1155.5359,816.8125 Z " fill="#000000"/><text fill="#000000" font-family="sans-serif" font-size="9.8" lengthAdjust="spacing" textLength="59.3886" x="1163.4" y="823.7578">GoogleSignIn</text><line style="stroke:#181818;stroke-width:0.35;" x1="1143.8" x2="1224.1886" y1="830.9" y2="830.9"/><line style="stroke:#181818;stroke-width:0.35;" x1="1143.8" x2="1224.1886" y1="836.5" y2="836.5"/></g><!--class NotificationService--><g class="entity" data-entity="NotificationService" data-source-line="131" data-uid="ent0034" id="entity_NotificationService"><rect fill="#F1F1F1" height="72.7043" rx="1.75" ry="1.75" style="stroke:#181818;stroke-width:0.35;" width="171.8227" x="5.25" y="154"/><ellipse cx="47.6082" cy="165.2" fill="#ADD1B2" rx="7.7" ry="7.7" style="stroke:#181818;stroke-width:0.7;"/><path d="M49.5441,162.3125 Q49.6535,162.1594 49.7848,162.0828 Q49.916,162.0062 50.0691,162.0062 Q50.3316,162.0062 50.4957,162.1922 Q50.6598,162.3672 50.6598,162.7937 L50.6598,163.8109 Q50.6598,164.2375 50.4957,164.4234 Q50.3316,164.6094 50.0691,164.6094 Q49.8285,164.6094 49.6863,164.4672 Q49.5441,164.3359 49.4676,163.975 Q49.4348,163.7234 49.3035,163.5922 Q49.0738,163.3297 48.6473,163.1766 Q48.2207,163.0234 47.7832,163.0234 Q47.2473,163.0234 46.7988,163.2531 Q46.3613,163.4828 46.0113,164.0078 Q45.6723,164.5328 45.6723,165.2547 L45.6723,166.0203 Q45.6723,166.8844 46.2957,167.4641 Q46.9191,168.0328 48.0348,168.0328 Q48.691,168.0328 49.1504,167.8578 Q49.4238,167.7484 49.7191,167.4422 Q49.9051,167.2562 50.0035,167.2016 Q50.1129,167.1469 50.2551,167.1469 Q50.4848,167.1469 50.6598,167.3328 Q50.8457,167.5078 50.8457,167.7484 Q50.8457,167.9891 50.6051,168.2734 Q50.2551,168.6781 49.6973,168.9078 Q48.9426,169.225 48.0348,169.225 Q46.9738,169.225 46.1316,168.7875 Q45.4426,168.4375 44.9613,167.6937 Q44.4801,166.9391 44.4801,166.0422 L44.4801,165.2328 Q44.4801,164.3031 44.9066,163.5047 Q45.3441,162.6953 46.1098,162.2687 Q46.8754,161.8312 47.7395,161.8312 Q48.2535,161.8312 48.702,161.9516 Q49.1613,162.0609 49.5441,162.3125 Z " fill="#000000"/><text fill="#000000" font-family="sans-serif" font-size="9.8" lengthAdjust="spacing" textLength="81.1562" x="61.9582" y="169.2578">NotificationService</text><line style="stroke:#181818;stroke-width:0.35;" x1="5.95" x2="176.3727" y1="176.4" y2="176.4"/><line style="stroke:#181818;stroke-width:0.7;" x1="5.95" x2="176.3727" y1="182" y2="182"/><text fill="#000000" font-family="sans-serif" font-size="9.8" lengthAdjust="spacing" textLength="163.4227" x="9.45" y="195.3752">plugin: FlutterLocalNotificationsPlugin</text><text fill="#000000" font-family="sans-serif" font-size="9.8" lengthAdjust="spacing" textLength="159.585" x="9.45" y="208.41">requestNotificationPermission(): void</text><text fill="#000000" font-family="sans-serif" font-size="9.8" lengthAdjust="spacing" textLength="42.4778" x="9.45" y="221.4447">init(): void</text></g><!--class FlutterLocalNotificationsPlugin--><g class="entity" data-entity="FlutterLocalNotificationsPlugin" data-source-line="137" data-uid="ent0035" id="entity_FlutterLocalNotificationsPlugin"><rect fill="#F1F1F1" height="33.6" rx="1.75" ry="1.75" style="stroke:#181818;stroke-width:0.35;" width="154.2215" x="229.25" y="173.6"/><ellipse cx="239.75" cy="184.8" fill="#ADD1B2" rx="7.7" ry="7.7" style="stroke:#181818;stroke-width:0.7;"/><path d="M241.6859,181.9125 Q241.7953,181.7594 241.9266,181.6828 Q242.0578,181.6062 242.2109,181.6062 Q242.4734,181.6062 242.6375,181.7922 Q242.8016,181.9672 242.8016,182.3937 L242.8016,183.4109 Q242.8016,183.8375 242.6375,184.0234 Q242.4734,184.2094 242.2109,184.2094 Q241.9703,184.2094 241.8281,184.0672 Q241.6859,183.9359 241.6094,183.575 Q241.5766,183.3234 241.4453,183.1922 Q241.2156,182.9297 240.7891,182.7766 Q240.3625,182.6234 239.925,182.6234 Q239.3891,182.6234 238.9406,182.8531 Q238.5031,183.0828 238.1531,183.6078 Q237.8141,184.1328 237.8141,184.8547 L237.8141,185.6203 Q237.8141,186.4844 238.4375,187.0641 Q239.0609,187.6328 240.1766,187.6328 Q240.8328,187.6328 241.2922,187.4578 Q241.5656,187.3484 241.8609,187.0422 Q242.0469,186.8562 242.1453,186.8016 Q242.2547,186.7469 242.3969,186.7469 Q242.6266,186.7469 242.8016,186.9328 Q242.9875,187.1078 242.9875,187.3484 Q242.9875,187.5891 242.7469,187.8734 Q242.3969,188.2781 241.8391,188.5078 Q241.0844,188.825 240.1766,188.825 Q239.1156,188.825 238.2734,188.3875 Q237.5844,188.0375 237.1031,187.2937 Q236.6219,186.5391 236.6219,185.6422 L236.6219,184.8328 Q236.6219,183.9031 237.0484,183.1047 Q237.4859,182.2953 238.2516,181.8687 Q239.0172,181.4312 239.8812,181.4312 Q240.3953,181.4312 240.8437,181.5516 Q241.3031,181.6609 241.6859,181.9125 Z " fill="#000000"/><text fill="#000000" font-family="sans-serif" font-size="9.8" lengthAdjust="spacing" textLength="131.8215" x="249.55" y="188.8578">FlutterLocalNotificationsPlugin</text><line style="stroke:#181818;stroke-width:0.35;" x1="229.95" x2="382.7715" y1="196" y2="196"/><line style="stroke:#181818;stroke-width:0.35;" x1="229.95" x2="382.7715" y1="201.6" y2="201.6"/></g><!--class TrackerService--><g class="entity" data-entity="TrackerService" data-source-line="138" data-uid="ent0037" id="entity_TrackerService"><rect fill="#F1F1F1" height="124.8434" rx="1.75" ry="1.75" style="stroke:#181818;stroke-width:0.35;" width="172.3825" x="4.9" y="4.9"/><ellipse cx="55.1705" cy="16.1" fill="#ADD1B2" rx="7.7" ry="7.7" style="stroke:#181818;stroke-width:0.7;"/><path d="M57.1064,13.2125 Q57.2158,13.0594 57.347,12.9828 Q57.4783,12.9062 57.6314,12.9062 Q57.8939,12.9062 58.058,13.0922 Q58.222,13.2672 58.222,13.6937 L58.222,14.7109 Q58.222,15.1375 58.058,15.3234 Q57.8939,15.5094 57.6314,15.5094 Q57.3908,15.5094 57.2486,15.3672 Q57.1064,15.2359 57.0298,14.875 Q56.997,14.6234 56.8658,14.4922 Q56.6361,14.2297 56.2095,14.0766 Q55.783,13.9234 55.3455,13.9234 Q54.8095,13.9234 54.3611,14.1531 Q53.9236,14.3828 53.5736,14.9078 Q53.2345,15.4328 53.2345,16.1547 L53.2345,16.9203 Q53.2345,17.7844 53.858,18.3641 Q54.4814,18.9328 55.597,18.9328 Q56.2533,18.9328 56.7126,18.7578 Q56.9861,18.6484 57.2814,18.3422 Q57.4673,18.1562 57.5658,18.1016 Q57.6751,18.0469 57.8173,18.0469 Q58.047,18.0469 58.222,18.2328 Q58.408,18.4078 58.408,18.6484 Q58.408,18.8891 58.1673,19.1734 Q57.8173,19.5781 57.2595,19.8078 Q56.5048,20.125 55.597,20.125 Q54.5361,20.125 53.6939,19.6875 Q53.0048,19.3375 52.5236,18.5937 Q52.0423,17.8391 52.0423,16.9422 L52.0423,16.1328 Q52.0423,15.2031 52.4689,14.4047 Q52.9064,13.5953 53.672,13.1687 Q54.4376,12.7312 55.3017,12.7312 Q55.8158,12.7312 56.2642,12.8516 Q56.7236,12.9609 57.1064,13.2125 Z " fill="#000000"/><text fill="#000000" font-family="sans-serif" font-size="9.8" lengthAdjust="spacing" textLength="65.8916" x="69.5205" y="20.1578">TrackerService</text><line style="stroke:#181818;stroke-width:0.35;" x1="5.6" x2="176.5825" y1="27.3" y2="27.3"/><line style="stroke:#181818;stroke-width:0.7;" x1="5.6" x2="176.5825" y1="32.9" y2="32.9"/><text fill="#000000" font-family="sans-serif" font-size="9.8" lengthAdjust="spacing" textLength="73.5144" x="9.1" y="46.2752">trackerUrl: String</text><text fill="#000000" font-family="sans-serif" font-size="9.8" lengthAdjust="spacing" textLength="83.3191" x="9.1" y="59.31">registerUser(): void</text><text fill="#000000" font-family="sans-serif" font-size="9.8" lengthAdjust="spacing" textLength="150.3161" x="9.1" y="72.3447">sendToServerForAnalysis(): String</text><text fill="#000000" font-family="sans-serif" font-size="9.8" lengthAdjust="spacing" textLength="154.1538" x="9.1" y="85.3795">getMySharedAudiosId(): String[0..*]</text><text fill="#000000" font-family="sans-serif" font-size="9.8" lengthAdjust="spacing" textLength="163.9825" x="9.1" y="98.4143">getSharedAudios(): SharedAudio[0..*]</text><text fill="#000000" font-family="sans-serif" font-size="9.8" lengthAdjust="spacing" textLength="148.1724" x="9.1" y="111.449">searchAudios(): SharedAudio[0..*]</text><text fill="#000000" font-family="sans-serif" font-size="9.8" lengthAdjust="spacing" textLength="71.3371" x="9.1" y="124.4838">findTracker(): int</text></g><!--reverse link StatelessWidget to MainApp--><g class="link" data-entity-1="StatelessWidget" data-entity-2="MainApp" data-source-line="6" data-uid="lnk4" id="link_StatelessWidget_MainApp"><path codeLine="6" d="M150.0061,1092.7677 C189.7661,1086.1317 234.045,1078.735 270.326,1072.68" fill="none" id="StatelessWidget-backto-MainApp" style="stroke:#181818;stroke-width:0.7;"/><polygon fill="none" points="137.578,1094.842,150.6975,1096.9104,149.3147,1088.625,137.578,1094.842" style="stroke:#181818;stroke-width:0.7;"/></g><!--reverse link StatefulWidget to HomePage--><g class="link" data-entity-1="StatefulWidget" data-entity-2="HomePage" data-source-line="13" data-uid="lnk7" id="link_StatefulWidget_HomePage"><path codeLine="13" d="M361.7928,236.5409 C392.3898,229.8699 422.128,223.384 458.115,215.537" fill="none" id="StatefulWidget-backto-HomePage" style="stroke:#181818;stroke-width:0.7;"/><polygon fill="none" points="349.482,239.225,362.6875,240.6445,360.8981,232.4373,349.482,239.225" style="stroke:#181818;stroke-width:0.7;"/></g><!--reverse link State to _HomePageState--><g class="link" data-entity-1="State" data-entity-2="_HomePageState" data-source-line="56" data-uid="lnk10" id="link_State__HomePageState"><path codeLine="56" d="M125.2749,814.8157 C183.2559,788.2507 330.897,720.594 435.19,672.798" fill="none" id="State-backto-_HomePageState" style="stroke:#181818;stroke-width:0.7;"/><polygon fill="none" points="113.82,820.064,127.0244,818.634,123.5255,810.9974,113.82,820.064" style="stroke:#181818;stroke-width:0.7;"/></g><!--link _HomePageState to ValueNotifier--><g class="link" data-entity-1="_HomePageState" data-entity-2="ValueNotifier" data-source-line="57" data-uid="lnk12" id="link__HomePageState_ValueNotifier"><path codeLine="57" d="M629.37,611.863 C665.392,605.598 700.1461,599.5628 727.9921,594.7188" fill="none" id="_HomePageState-to-ValueNotifier" style="stroke:#181818;stroke-width:0.7;stroke-dasharray:4.9,4.9;"/><polygon fill="#181818" points="732.13,593.999,725.4433,592.3201,728.6818,594.5988,726.4031,597.8373,732.13,593.999" style="stroke:#181818;stroke-width:0.7;"/></g><!--link _HomePageState to DriveService--><g class="link" data-entity-1="_HomePageState" data-entity-2="DriveService" data-source-line="58" data-uid="lnk14" id="link__HomePageState_DriveService"><path codeLine="58" d="M629.37,724.78 C643.139,738.521 654.3489,749.7214 668.1739,763.5254" fill="none" id="_HomePageState-to-DriveService" style="stroke:#181818;stroke-width:0.7;stroke-dasharray:4.9,4.9;"/><polygon fill="#181818" points="671.146,766.493,668.6662,760.0602,668.6692,764.02,664.7094,764.023,671.146,766.493" style="stroke:#181818;stroke-width:0.7;"/></g><!--link _HomePageState to AuthService--><g class="link" data-entity-1="_HomePageState" data-entity-2="AuthService" data-source-line="59" data-uid="lnk16" id="link__HomePageState_AuthService"><path codeLine="59" d="M629.454,662.802 C712.404,692.23 827.3757,733.0148 909.4017,762.1138" fill="none" id="_HomePageState-to-AuthService" style="stroke:#181818;stroke-width:0.7;stroke-dasharray:4.9,4.9;"/><polygon fill="#181818" points="913.36,763.518,908.3587,758.7728,910.0614,762.3478,906.4864,764.0505,913.36,763.518" style="stroke:#181818;stroke-width:0.7;"/></g><!--reverse link StatelessWidget to LoginPage--><g class="link" data-entity-1="StatelessWidget" data-entity-2="LoginPage" data-source-line="64" data-uid="lnk18" id="link_StatelessWidget_LoginPage"><path codeLine="64" d="M150.0061,1112.2323 C189.7661,1118.8683 234.045,1126.265 270.326,1132.32" fill="none" id="StatelessWidget-backto-LoginPage" style="stroke:#181818;stroke-width:0.7;"/><polygon fill="none" points="137.578,1110.158,149.3147,1116.375,150.6975,1108.0896,137.578,1110.158" style="stroke:#181818;stroke-width:0.7;"/></g><!--reverse link StatefulWidget to SearchPage--><g class="link" data-entity-1="StatefulWidget" data-entity-2="SearchPage" data-source-line="71" data-uid="lnk20" id="link_StatefulWidget_SearchPage"><path codeLine="71" d="M361.8006,260.2899 C388.9606,266.1279 412.832,271.257 445.788,278.341" fill="none" id="StatefulWidget-backto-SearchPage" style="stroke:#181818;stroke-width:0.7;"/><polygon fill="none" points="349.482,257.642,360.918,264.3961,362.6833,256.1837,349.482,257.642" style="stroke:#181818;stroke-width:0.7;"/></g><!--link SearchPage to ValueNotifier--><g class="link" data-entity-1="SearchPage" data-entity-2="ValueNotifier" data-source-line="72" data-uid="lnk21" id="link_SearchPage_ValueNotifier"><path codeLine="72" d="M613.718,333.235 C619.255,337.113 624.526,341.299 629.3,345.8 C701.589,413.959 747.1463,523.3962 763.1413,566.2502" fill="none" id="SearchPage-to-ValueNotifier" style="stroke:#181818;stroke-width:0.7;stroke-dasharray:4.9,4.9;"/><polygon fill="#181818" points="764.61,570.185,765.0302,563.3036,763.3861,566.906,759.7838,565.2618,764.61,570.185" style="stroke:#181818;stroke-width:0.7;"/></g><!--reverse link State to _SearchPageState--><g class="link" data-entity-1="State" data-entity-2="_SearchPageState" data-source-line="86" data-uid="lnk23" id="link_State__SearchPageState"><path codeLine="86" d="M125.0579,846.7976 C149.9219,859.1736 180.593,874.426 218.925,893.501" fill="none" id="State-backto-_SearchPageState" style="stroke:#181818;stroke-width:0.7;"/><polygon fill="none" points="113.778,841.183,123.1864,850.5575,126.9294,843.0376,113.778,841.183" style="stroke:#181818;stroke-width:0.7;"/></g><!--link _SearchPageState to DriveService--><g class="link" data-entity-1="_SearchPageState" data-entity-2="DriveService" data-source-line="87" data-uid="lnk24" id="link__SearchPageState_DriveService"><path codeLine="87" d="M393.568,935.634 C458.899,933.555 550.438,927.745 629.3,912.1 C643.041,909.377 653.2808,906.9017 667.2318,902.8487" fill="none" id="_SearchPageState-to-DriveService" style="stroke:#181818;stroke-width:0.7;stroke-dasharray:4.9,4.9;"/><polygon fill="#181818" points="671.265,901.677,664.434,900.7458,667.904,902.6534,665.9963,906.1234,671.265,901.677" style="stroke:#181818;stroke-width:0.7;"/></g><!--link _SearchPageState to DownloadService--><g class="link" data-entity-1="_SearchPageState" data-entity-2="DownloadService" data-source-line="88" data-uid="lnk26" id="link__SearchPageState_DownloadService"><path codeLine="88" d="M393.505,964.915 C417.487,972.755 439.1361,979.8425 461.7391,987.2345" fill="none" id="_SearchPageState-to-DownloadService" style="stroke:#181818;stroke-width:0.7;stroke-dasharray:4.9,4.9;"/><polygon fill="#181818" points="465.731,988.54,460.6134,983.9204,462.4044,987.4521,458.8727,989.243,465.731,988.54" style="stroke:#181818;stroke-width:0.7;"/></g><!--link AuthService to FirebaseAuth--><g class="link" data-entity-1="AuthService" data-entity-2="FirebaseAuth" data-source-line="105" data-uid="lnk29" id="link_AuthService_FirebaseAuth"><path codeLine="105" d="M1101.324,780.955 C1116.206,778.456 1126.7359,776.6943 1139.4549,774.5593" fill="none" id="AuthService-to-FirebaseAuth" style="stroke:#181818;stroke-width:0.7;stroke-dasharray:4.9,4.9;"/><polygon fill="#181818" points="1143.597,773.864,1136.9204,772.1456,1140.1453,774.4434,1137.8474,777.6683,1143.597,773.864" style="stroke:#181818;stroke-width:0.7;"/></g><!--link AuthService to GoogleSignIn--><g class="link" data-entity-1="AuthService" data-entity-2="GoogleSignIn" data-source-line="106" data-uid="lnk31" id="link_AuthService_GoogleSignIn"><path codeLine="106" d="M1101.324,811.874 C1115.961,814.268 1126.2502,815.9555 1138.8222,818.0135" fill="none" id="AuthService-to-GoogleSignIn" style="stroke:#181818;stroke-width:0.7;stroke-dasharray:4.9,4.9;"/><polygon fill="#181818" points="1142.967,818.692,1137.2021,814.911,1139.513,818.1266,1136.2974,820.4375,1142.967,818.692" style="stroke:#181818;stroke-width:0.7;"/></g><!--link DownloadService to DriveService--><g class="link" data-entity-1="DownloadService" data-entity-2="DriveService" data-source-line="113" data-uid="lnk32" id="link_DownloadService_DriveService"><path codeLine="113" d="M597.457,973.567 C608.132,967.379 619.059,960.96 629.3,954.8 C642.908,946.617 653.5928,940.091 667.5928,931.39" fill="none" id="DownloadService-to-DriveService" style="stroke:#181818;stroke-width:0.7;stroke-dasharray:4.9,4.9;"/><polygon fill="#181818" points="671.16,929.173,664.3312,930.1204,668.1873,931.0205,667.2872,934.8766,671.16,929.173" style="stroke:#181818;stroke-width:0.7;"/></g><!--link DriveService to AuthService--><g class="link" data-entity-1="DriveService" data-entity-2="AuthService" data-source-line="130" data-uid="lnk33" id="link_DriveService_AuthService"><path codeLine="130" d="M871.549,836.514 C885.402,832.419 895.5701,829.4091 909.3111,825.3491" fill="none" id="DriveService-to-AuthService" style="stroke:#181818;stroke-width:0.7;stroke-dasharray:4.9,4.9;"/><polygon fill="#181818" points="913.339,824.159,906.5038,823.2589,909.9824,825.1507,908.0906,828.6294,913.339,824.159" style="stroke:#181818;stroke-width:0.7;"/></g><!--link NotificationService to FlutterLocalNotificationsPlugin--><g class="link" data-entity-1="NotificationService" data-entity-2="FlutterLocalNotificationsPlugin" data-source-line="137" data-uid="lnk36" id="link_NotificationService_FlutterLocalNotificationsPlugin"><path codeLine="137" d="M176.834,190.4 C194.075,190.4 207.9,190.4 224.819,190.4" fill="none" id="NotificationService-to-FlutterLocalNotificationsPlugin" style="stroke:#181818;stroke-width:0.7;stroke-dasharray:4.9,4.9;"/><polygon fill="#181818" points="229.019,190.4,222.719,187.6,225.519,190.4,222.719,193.2,229.019,190.4" style="stroke:#181818;stroke-width:0.7;"/></g><!--SRC=[ZLPBRoCt3BxhLyonBJf1qQDXE30Qk0dWR0ruqpqiYeKoeiU2PSdLmxj6c_zUwkNHF9pjoUP39FM9_3W2ThQogjAytTkASGsDvKgIHb1ZgcVAvV9qgluXTLsJLyS5- -77MVM9inOiUIDRIoq8C2Pgglc_TPqFfH2FwWWRsaAAiLE2WNvYisfhDPSjSGQqf4UuAXeD63H4zhd2dtcEadFkd2XJNiqnvvSi1z-KUPJ8OEMD1RPqZAkilIUDqnga3TedzcrMSMa9Dnj1BsYVLQzA2PJNYh9EFb49uf4po39wWvvLqWb1cFeg1Re3-w0itt5l-9CA1rcS-pCBmfoc7lnPzP3-aPCoVA2gcUPds88-ymRJFHGIgQcp-wjfsGd4QjeSG9jPjUR6pZz6CLaNPCVn5PFjcPxc4OoV4oYBnNtqsEwfni2bHomzMDVySDlu95FElWU2ko1SSdjzyBFYZ31kyEgTN7_n0Avye49dLTiAy6b7ob1feTNGujr0VrIfZCBcPBQkj3gExGOacpftuirXATdBATTMs1WsbuM1ib5on_LnorlvXxDZmqCuL6R0DWgDEBgVRySDTMRe_G6-sO5ge-7CbIk1sobzf3QtL1opC1CHPt-Y_nu80Zs3rszIHmvCeShX6Gt6AZrbkq4bSPhxuqi6qtntj-XFpvH3RoecxELeHCvOgvRBWgZ-9zbTZwKmMw2wsHTnlZDu0swO9eP9IkmotI35mg6eQWnVuipEfsHDRXvIXHtPiKwpYhon1PicUl4-F-MZdRcly5o1SvX8EOCMXZcgfiW2-pcSYcTwQXpSRcmzaPkz-ffpHWGQscldzpjp018PeJPklacFmQrJxtJNJEZtzfMdqM9nOWXFfaaIN1wkmbiAM7Hv2bWZpS0hDU1DisfLIAHkbVBCYUpqX0ldzq8Y9lnyudOVrHwW5roels71k2mv5S6bP3K4puTz16nkRNxr-l5coTlMnyenxx7-id8FMA_GeR5NQRpv0E1y-tTQCtSc4dheYqj9SDWqaytoHeQ9Hk-VwYbKkPYRkxgFt0tWq6cLlgKw_hudhhUCnbg_uTROAwKLG-Lh34sHUMAYKYzmB5TnhNT6hB9VvETVxkv- -YiayCulMXIhvaWFOJzktAlWpHLIN37ga9GRq4TkJ8bueqwNuUqcTYq-J8duDEMNJzf_cvDmIEiu7y9P99QrQgWelV5hq3jWiNyxt76bQQ9cprX5PLDfGuz_9raikhz0-ai60Rx2cpzfycI5vF5Bnf_5RnsbbvAAY-6cU1LygkTBGKIcRA_udjwdz0ZsJavE9j3UUnuJxFps7m00]--></g></svg>